<?xml version="1.0" standalone="no"?>
<svg viewBox="0 0 200 200" xmlns="http://www.w3.org/2000/svg">
  <path fill="#eb455e33" d="M47.7,-70.2C59.9,-66.5,66.4,-49.9,73.2,-33.8C80.1,-17.7,87.2,-2.1,87.1,14C87,30,79.8,46.4,66.8,53.6C53.9,60.7,35.2,58.6,19.5,60.5C3.9,62.3,-8.9,68,-20.5,66.2C-32.2,64.5,-42.7,55.3,-52.1,44.9C-61.5,34.5,-69.9,22.9,-68.2,11.9C-66.5,1,-54.7,-9.3,-47.9,-21C-41.2,-32.7,-39.6,-45.9,-32.4,-51.9C-25.3,-57.9,-12.6,-56.9,2.6,-60.9C17.8,-64.9,35.6,-74,47.7,-70.2Z" transform="translate(100 100)" />
</svg>
