<svg xmlns="http://www.w3.org/2000/svg" version="1.1" xmlns:xlink="http://www.w3.org/1999/xlink" xmlns:svgjs="http://svgjs.com/svgjs" width="1920" height="1080" preserveAspectRatio="none" viewBox="0 0 1920 1080"><g mask="url(&quot;#SvgjsMask1014&quot;)" fill="none"><rect width="1920" height="1080" x="0" y="0" fill="rgba(43, 52, 103, 0.78)"></rect><path d="M1016.041,1048.365C1071.662,1047.378,1131.417,1036.567,1159.9,988.782C1188.9,940.128,1172.099,880.98,1145.673,830.881C1116.807,776.156,1077.911,716.398,1016.041,716.048C953.827,715.696,913.837,774.893,883.842,829.4C855.257,881.344,832.415,943.292,863.059,994.049C893.035,1043.7,958.052,1049.394,1016.041,1048.365" fill="rgba(235, 69, 95, 0.74)" class="triangle-float2"></path><path d="M273.86,1310.421C373.95,1311.478,473.638,1264.929,519.722,1176.072C563.031,1092.566,530.714,994.214,478.403,916.031C432.503,847.43,356.376,806.61,273.86,808.613C194.771,810.533,129.133,859.356,85.826,925.562C36.884,1000.383,-2.413,1090.64,36.835,1170.971C79.965,1259.248,175.615,1309.383,273.86,1310.421" fill="rgba(235, 69, 95, 0.74)" class="triangle-float3"></path><path d="M591.994,1457.308C694.22,1453.896,750.899,1351.263,801.862,1262.58C852.559,1174.36,915.588,1072.067,863.665,984.563C812.25,897.916,692.341,899.863,591.994,908.897C509.865,916.291,438.033,957.404,393.616,1026.88C344.867,1103.132,318.49,1195.255,356.372,1277.449C400.699,1373.628,486.151,1460.841,591.994,1457.308" fill="rgba(235, 69, 95, 0.74)" class="triangle-float2"></path><path d="M313.594,348.63C390.033,345.066,454.882,301.814,496.923,237.876C544.587,165.387,587.285,74.187,543.165,-0.512C499.451,-74.524,399.358,-78.292,313.594,-72.516C239.746,-67.542,172.55,-34.73,131.988,27.181C86.606,96.449,57.316,184.375,98.05,256.475C139.245,329.392,229.936,352.531,313.594,348.63" fill="rgba(235, 69, 95, 0.74)" class="triangle-float3"></path><path d="M699.771,104.752C737.315,104.755,778.944,101.008,798.598,69.02C818.905,35.97,808.404,-5.982,788.125,-39.049C768.874,-70.44,736.593,-91.791,699.771,-92.13C662.362,-92.474,628.111,-72.594,608.556,-40.701C588.02,-7.208,580.1,35.719,600.973,69.003C620.916,100.804,662.234,104.749,699.771,104.752" fill="rgba(235, 69, 95, 0.74)" class="triangle-float3"></path><path d="M1429.455,1167.551C1521.062,1168.588,1615.129,1138.22,1662.013,1059.513C1709.839,979.224,1697.572,878.342,1649.446,798.233C1602.819,720.619,1519.991,671.285,1429.455,672.406C1340.776,673.504,1263.506,727.031,1218.698,803.565C1173.371,880.986,1160.89,976.71,1205.844,1054.348C1250.713,1131.838,1339.918,1166.537,1429.455,1167.551" fill="rgba(235, 69, 95, 0.74)" class="triangle-float3"></path><path d="M2022.647,997.955C2119.247,1002.664,2222.716,983.299,2275.999,902.585C2334.088,814.591,2334.531,697.981,2280.408,607.494C2227.59,519.19,2125.54,478.316,2022.647,479.013C1921.095,479.701,1818.68,521.353,1770.865,610.946C1725.192,696.525,1755.848,798.497,1808.747,879.808C1856.356,952.986,1935.449,993.704,2022.647,997.955" fill="rgba(235, 69, 95, 0.74)" class="triangle-float3"></path><path d="M802.41,1526.718C902.708,1527.123,975.663,1440.139,1021.162,1350.754C1062.019,1270.488,1058.785,1180.088,1020.301,1098.658C974.023,1000.736,910.357,896.705,802.41,887.882C682.915,878.115,563.45,948.565,512.647,1057.163C467.067,1154.596,530.206,1257.46,586.695,1349C639.133,1433.975,702.558,1526.315,802.41,1526.718" fill="rgba(235, 69, 95, 0.74)" class="triangle-float3"></path><path d="M947.025,610.385C988.582,610.207,1031.234,600.596,1054.654,566.267C1081.178,527.389,1089.436,476.243,1066.622,435.078C1043.211,392.837,995.275,369.985,947.025,372.071C902.06,374.015,866.076,405.426,844.09,444.698C822.683,482.936,814.662,529.973,837.788,567.196C859.934,602.843,905.059,610.565,947.025,610.385" fill="rgba(235, 69, 95, 0.74)" class="triangle-float2"></path><path d="M1667.276,1091.858C1754.882,1091.739,1836.016,1049.528,1883.258,975.751C1934.79,895.275,1954.442,795.388,1911.913,709.812C1864.668,614.747,1773.427,539.97,1667.276,541.157C1562.714,542.326,1478.6,621.6,1431.936,715.18C1390.197,798.885,1400.711,897.016,1450.271,976.341C1496.808,1050.827,1579.447,1091.978,1667.276,1091.858" fill="rgba(235, 69, 95, 0.74)" class="triangle-float1"></path><path d="M585.403,873.864C634.439,872.174,682.903,857.758,710.496,817.187C741.991,770.88,758.89,709.449,729.755,661.623C701.374,615.035,639.93,610.2,585.403,611.845C534.556,613.379,483.326,627.389,455.388,669.9C424.614,716.726,414.311,779.106,444.43,826.356C472.998,871.173,532.287,875.694,585.403,873.864" fill="rgba(235, 69, 95, 0.74)" class="triangle-float2"></path></g><defs><mask id="SvgjsMask1014"><rect width="1920" height="1080" fill="#ffffff"></rect></mask><style>
            @keyframes float1 {
                0%{transform: translate(0, 0)}
                50%{transform: translate(-10px, 0)}
                100%{transform: translate(0, 0)}
            }

            .triangle-float1 {
                animation: float1 5s infinite;
            }

            @keyframes float2 {
                0%{transform: translate(0, 0)}
                50%{transform: translate(-5px, -5px)}
                100%{transform: translate(0, 0)}
            }

            .triangle-float2 {
                animation: float2 4s infinite;
            }

            @keyframes float3 {
                0%{transform: translate(0, 0)}
                50%{transform: translate(0, -10px)}
                100%{transform: translate(0, 0)}
            }

            .triangle-float3 {
                animation: float3 6s infinite;
            }
        </style></defs></svg>